<?xml version="1.0" standalone="no"?><!DOCTYPE svg PUBLIC "-//W3C//DTD SVG 1.1//EN" "http://www.w3.org/Graphics/SVG/1.1/DTD/svg11.dtd"><svg t="1648152678033" class="icon" viewBox="0 0 1187 1024" version="1.1" xmlns="http://www.w3.org/2000/svg" p-id="9999" xmlns:xlink="http://www.w3.org/1999/xlink" width="55.640625" height="48"><defs><style type="text/css"></style></defs><path d="M1076.998817 1024H102.200313A104.131709 104.131709 0 0 1 0 921.570538V228.52671a104.164445 104.164445 0 0 1 102.200313-102.396727h220.11368L385.231674 23.765992c0-15.745788 39.282632-23.63505 55.02842-23.63505h306.568204c15.745788 0 55.02842 7.889262 55.02842 23.63505l62.917682 102.363991h220.113679a104.164445 104.164445 0 0 1 102.200313 102.396727V921.505067a117.487804 117.487804 0 0 1-110.089575 102.494933z m-487.431987-795.47329a330.628816 330.628816 0 1 0 330.203254 330.628816 332.462006 332.462006 0 0 0-330.203254-330.628816z m0 566.979316a232.422237 232.422237 0 1 1 228.002941-236.252294 228.330296 228.330296 0 0 1-228.002941 236.252294z" p-id="10000"></path></svg>