<?xml version="1.0" standalone="no"?><!DOCTYPE svg PUBLIC "-//W3C//DTD SVG 1.1//EN" "http://www.w3.org/Graphics/SVG/1.1/DTD/svg11.dtd"><svg t="1646224329016" class="icon" viewBox="0 0 1024 1024" version="1.1" xmlns="http://www.w3.org/2000/svg" p-id="1237" xmlns:xlink="http://www.w3.org/1999/xlink" width="64" height="64"><defs><style type="text/css"></style></defs><path d="M512 32C246.9 32 32 246.9 32 512c0 127.9 50.1 244 131.7 330.1l70.8-206.6 29.9-80.7c86.9 6.1 172.9-6.6 222.7-16.3L337.7 959.2c54 21.1 112.8 32.8 174.3 32.8 265.1 0 480-214.9 480-480S777.1 32 512 32z m98.8 346.9l-40.4 71-68.5 4.9 29.5-70.2 79.4-5.7z m-69.9-35.1l29.5-70.2 79.4-5.6-40.4 71-68.5 4.8z m-99.4-96.4l79.4-5.6-40.4 71-68.6 4.9 29.6-70.3zM250 391.5l20.1-63.8 112.4-8-19.9 63.8-112.6 8z m202.4 129.1l-112.6 8 20.1-63.8 112.4-8-19.9 63.8z m-73.6-102.9l20.1-63.8 112.4-8-19.9 63.8-112.6 8z m151.9 111.1c67.6-15.1 140.9-49.1 197.5-91.5 199-149.1-16.2-296.9-175.6-260.7 150.1-36.8 396.7 2.3 397 177.3 0.2 102.5-98.1 207.5-238.3 268.8-41.2 18-86 32.3-132.9 41.6-5.3 1.1-10.6 2.1-16 3-35 6-50 8.9-82.2 9l50.5-147.5zM388.2 913.4l56.3-141.1C961.6 739.5 976 391.5 976 391.5c37.7 526.6-587.8 521.9-587.8 521.9z" p-id="1238" fill="#707070"></path></svg>