<?xml version="1.0" standalone="no"?><!DOCTYPE svg PUBLIC "-//W3C//DTD SVG 1.1//EN" "http://www.w3.org/Graphics/SVG/1.1/DTD/svg11.dtd"><svg t="1648289068691" class="icon" viewBox="0 0 1024 1024" version="1.1" xmlns="http://www.w3.org/2000/svg" p-id="2984" xmlns:xlink="http://www.w3.org/1999/xlink" width="200" height="200"><defs><style type="text/css">@font-face { font-family: feedback-iconfont; src: url("//at.alicdn.com/t/font_1031158_u69w8yhxdu.woff2?t=1630033759944") format("woff2"), url("//at.alicdn.com/t/font_1031158_u69w8yhxdu.woff?t=1630033759944") format("woff"), url("//at.alicdn.com/t/font_1031158_u69w8yhxdu.ttf?t=1630033759944") format("truetype"); }
</style></defs><path d="M816.21 796.76a10.7 10.7 0 0 1-4.18-0.85c-18.19-7.66-446.22-190.32-498.58-417.92-1.33-5.8 2.29-11.59 8.09-12.92 5.79-1.28 11.59 2.3 12.92 8.09C384.37 590.11 816.05 774.2 820.4 776.04c5.49 2.31 8.06 8.63 5.75 14.12-1.73 4.12-5.73 6.6-9.94 6.6z" p-id="2985"></path><path d="M566.79 670.3c-4.64 0-8.93-3.03-10.33-7.71-1.7-5.69 1.53-11.67 7.2-13.39 1.19-0.38 88.04-29.39 211.25-214.2 3.3-4.96 9.99-6.31 14.95-2.99 4.95 3.3 6.29 10 2.99 14.95-128.67 192.99-219.19 221.76-222.98 222.89-1.03 0.3-2.06 0.45-3.08 0.45z" p-id="2986"></path><path d="M399.44 338.76c-20.61 16.67-72.47 18.56-81.08 3.85-8.61-14.71 0.09-61.81 20.7-78.49 20.61-16.67 54.3-38.58 70.97-17.97 16.67 20.62 10.02 75.94-10.59 92.61z" fill="#FA8D85" p-id="2987"></path><path d="M318.78 267.81c7.87 25.31-9.54 74.2-26.39 76.76-16.85 2.56-57.4-22.93-65.28-48.25s-20.93-59.56 4.38-67.43 79.41 13.61 87.29 38.92z" fill="#FA8D85" p-id="2988"></path><path d="M214.61 318.28c26.31-3.24 71.31 22.62 70.83 39.65-0.48 17.04-32.8 52.4-59.11 55.63s-62.33 9.98-65.57-16.33c-3.23-26.31 27.54-75.72 53.85-78.95z" fill="#FA8D85" p-id="2989"></path><path d="M237.67 431.86c4.72-26.09 42.76-61.39 58.89-55.87 16.13 5.52 40.3 46.87 35.58 72.96-4.72 26.09-20.5 62.29-46.59 57.57-26.08-4.72-52.6-48.57-47.88-74.66z" fill="#FA8D85" p-id="2990"></path><path d="M336.36 438.95c-20.53-16.77-32.96-67.16-20.32-78.59s60.53-12.53 81.06 4.25c20.53 16.77 41.7 43.83 24.92 64.36-16.76 20.53-65.13 26.76-85.66 9.98z" fill="#FA8D85" p-id="2991"></path><path d="M353.85 357.47c-3.4-4.3-9.64-5.04-13.95-1.64-0.83 0.66-1.41 1.49-1.97 2.32l-27.82-8.07 21.64-20.78c1.57 0.63 3.25 1.01 5.05 0.75 5.43-0.79 9.19-5.83 8.39-11.26-0.79-5.43-5.83-9.19-11.26-8.39-5.43 0.79-9.19 5.83-8.39 11.26 0.11 0.75 0.47 1.37 0.73 2.04l-21.6 20.73-6.5-26.38c1.3-1.04 2.43-2.29 3.09-3.94 2.03-5.1-0.46-10.87-5.55-12.9-5.1-2.03-10.87 0.46-12.9 5.55-2.03 5.1 0.46 10.87 5.55 12.9 0.74 0.29 1.49 0.3 2.24 0.41l6.46 26.23-29.17-8.46c-0.24-1.69-0.75-3.34-1.88-4.78-3.4-4.3-9.64-5.04-13.95-1.64-4.3 3.4-5.04 9.64-1.64 13.95 3.4 4.3 9.64 5.04 13.95 1.64 0.58-0.46 0.93-1.08 1.38-1.63l29.13 8.44-18.73 17.98c-1.23-0.31-2.53-0.4-3.87-0.21-5.43 0.79-9.19 5.83-8.39 11.26 0.79 5.43 5.83 9.19 11.26 8.39s9.19-5.83 8.39-11.26c-0.18-1.2-0.63-2.28-1.18-3.29l17.94-17.22 6.16 25.04c-1.47 1.07-2.76 2.4-3.48 4.21-2.03 5.1 0.46 10.87 5.55 12.9s10.87-0.46 12.9-5.55c2.03-5.1-0.46-10.87-5.55-12.9-0.58-0.23-1.17-0.2-1.76-0.32l-6.22-25.25 28.53 8.27c0.32 1.38 0.88 2.71 1.81 3.9 3.4 4.3 9.64 5.04 13.95 1.64 4.33-3.39 5.06-9.63 1.66-13.94z" fill="#DE5349" p-id="2992"></path><path d="M845.47 424.77c-12.94 10.47-45.51 11.66-50.92 2.42s0.05-38.82 13-49.29c12.94-10.47 34.1-24.23 44.57-11.28 10.47 12.94 6.29 47.68-6.65 58.15z" fill="#FA8D85" p-id="2993"></path><path d="M794.82 380.21c4.95 15.9-5.99 46.6-16.57 48.21-10.58 1.61-36.05-14.4-40.99-30.3-4.95-15.9-13.14-37.4 2.75-42.35s49.86 8.54 54.81 24.44z" fill="#FA8D85" p-id="2994"></path><path d="M729.4 411.9c16.52-2.03 44.78 14.2 44.48 24.9-0.3 10.7-20.6 32.91-37.12 34.94-16.52 2.03-39.15 6.27-41.18-10.26s17.3-47.55 33.82-49.58z" fill="#FA8D85" p-id="2995"></path><path d="M743.88 483.23c2.96-16.38 26.85-38.55 36.98-35.09 10.13 3.47 25.31 29.43 22.35 45.82-2.96 16.38-12.88 39.12-29.26 36.16s-33.03-30.51-30.07-46.89z" fill="#FA8D85" p-id="2996"></path><path d="M805.86 487.69c-12.89-10.53-20.7-42.18-12.76-49.35 7.94-7.18 38.01-7.87 50.91 2.67 12.89 10.53 26.19 27.52 15.65 40.42-10.53 12.88-40.91 16.79-53.8 6.26z" fill="#FA8D85" p-id="2997"></path><path d="M816.84 436.52c-2.13-2.7-6.06-3.16-8.76-1.03-0.52 0.41-0.88 0.94-1.24 1.46l-17.47-5.07 13.59-13.05c0.99 0.4 2.04 0.64 3.17 0.47 3.41-0.5 5.77-3.66 5.27-7.07a6.232 6.232 0 0 0-7.07-5.27c-3.41 0.5-5.77 3.66-5.27 7.07 0.07 0.47 0.3 0.86 0.46 1.28l-13.56 13.02-4.08-16.56c0.81-0.65 1.52-1.44 1.94-2.47 1.27-3.2-0.29-6.83-3.49-8.1-3.2-1.27-6.83 0.29-8.1 3.49s0.29 6.83 3.49 8.1c0.46 0.18 0.93 0.19 1.41 0.26l4.05 16.47-18.32-5.31c-0.15-1.06-0.47-2.1-1.18-3-2.13-2.7-6.06-3.16-8.76-1.03s-3.16 6.06-1.03 8.76 6.06 3.16 8.76 1.03c0.37-0.29 0.58-0.68 0.87-1.02l18.29 5.3-11.76 11.29c-0.77-0.19-1.59-0.25-2.42-0.13-3.41 0.5-5.77 3.66-5.27 7.07s3.66 5.77 7.07 5.27 5.77-3.66 5.27-7.07c-0.11-0.76-0.39-1.43-0.74-2.07l11.26-10.81 3.87 15.73c-0.92 0.67-1.73 1.5-2.18 2.64-1.27 3.2 0.29 6.83 3.49 8.1 3.2 1.27 6.83-0.29 8.1-3.49 1.27-3.2-0.29-6.83-3.49-8.1-0.36-0.14-0.73-0.13-1.1-0.2l-3.9-15.85 17.91 5.19c0.2 0.87 0.55 1.7 1.14 2.45 2.13 2.7 6.06 3.16 8.76 1.03 2.7-2.16 3.16-6.08 1.02-8.78z" fill="#DE5349" p-id="2998"></path><path d="M686.67 615.13c-15.63 12.64-54.95 14.08-61.48 2.92s0.06-46.87 15.69-59.51c15.63-12.64 41.17-29.25 53.82-13.62 12.64 15.62 7.6 57.57-8.03 70.21z" fill="#FA8D85" p-id="2999"></path><path d="M625.51 561.33c5.97 19.19-7.24 56.26-20.01 58.2-12.78 1.94-43.53-17.39-49.5-36.58-5.97-19.19-15.87-45.16 3.32-51.13s60.22 10.32 66.19 29.51z" fill="#FA8D85" p-id="3000"></path><path d="M546.53 599.6c19.95-2.45 54.07 17.15 53.71 30.07s-24.87 39.73-44.82 42.18c-19.95 2.45-47.26 7.57-49.72-12.38-2.46-19.96 20.87-57.42 40.83-59.87z" fill="#FA8D85" p-id="3001"></path><path d="M564.01 685.72c3.58-19.78 32.42-46.55 44.65-42.36 12.23 4.18 30.56 35.54 26.98 55.32-3.58 19.78-15.55 47.23-35.33 43.66s-39.88-36.84-36.3-56.62z" fill="#FA8D85" p-id="3002"></path><path d="M638.84 691.1c-15.57-12.72-24.99-50.92-15.4-59.59 9.59-8.67 45.9-9.5 61.46 3.22 15.57 12.72 31.62 33.23 18.9 48.8-12.72 15.57-49.39 20.29-64.96 7.57z" fill="#FA8D85" p-id="3003"></path><path d="M652.11 629.32a7.535 7.535 0 0 0-10.58-1.24c-0.63 0.5-1.07 1.13-1.49 1.76l-21.1-6.12 16.41-15.75c1.19 0.48 2.47 0.77 3.83 0.57 4.12-0.6 6.97-4.42 6.36-8.54a7.516 7.516 0 0 0-8.54-6.36 7.53 7.53 0 0 0-6.36 8.54c0.08 0.57 0.36 1.03 0.55 1.55l-16.37 15.72-4.92-20c0.98-0.79 1.84-1.73 2.34-2.99 1.54-3.86-0.35-8.24-4.21-9.78-3.86-1.54-8.24 0.35-9.78 4.21-1.54 3.86 0.35 8.24 4.21 9.78 0.56 0.22 1.13 0.22 1.7 0.31l4.9 19.89-22.12-6.41c-0.18-1.28-0.57-2.54-1.42-3.62a7.535 7.535 0 0 0-10.58-1.24 7.535 7.535 0 0 0-1.24 10.58 7.535 7.535 0 0 0 10.58 1.24c0.44-0.35 0.71-0.82 1.05-1.24l22.08 6.4-14.2 13.63c-0.93-0.24-1.92-0.31-2.93-0.16-4.12 0.6-6.96 4.42-6.36 8.54a7.53 7.53 0 0 0 8.54 6.37c4.12-0.6 6.97-4.42 6.36-8.54-0.13-0.91-0.48-1.73-0.89-2.49l13.6-13.06 4.67 18.99c-1.11 0.81-2.09 1.82-2.64 3.19-1.54 3.86 0.35 8.24 4.21 9.78 3.86 1.54 8.24-0.35 9.78-4.21 1.54-3.86-0.35-8.24-4.21-9.78-0.44-0.17-0.89-0.15-1.33-0.24l-4.71-19.14 21.63 6.27c0.24 1.04 0.67 2.06 1.37 2.95a7.535 7.535 0 0 0 10.58 1.24c3.25-2.6 3.8-7.33 1.23-10.6z" fill="#DE5349" p-id="3004"></path><path d="M487.98 589.19c-13.62 1.43-36.62-12.32-36.22-21.11s17.41-26.77 31.03-28.2c13.62-1.43 34.37-1.46 35.81 12.16 1.43 13.61-17 35.72-30.62 37.15z" fill="#FA8D85" p-id="3005"></path><path d="M472.97 535.78c-3.7 13.18-24.99 29.48-33.01 25.85s-18.43-26.07-14.73-39.25c3.7-13.18 7.67-31.69 20.85-27.99 13.18 3.69 30.59 28.2 26.89 41.39z" fill="#FA8D85" p-id="3006"></path><path d="M413.64 528.37c12.31 5.99 24.55 29.84 19.55 37.09-5 7.25-28.94 13.49-41.25 7.5s-29.82-13.19-23.83-25.5c6-12.31 33.22-25.08 45.53-19.09z" fill="#FA8D85" p-id="3007"></path><path d="M391.72 584.08c9.38-9.98 35.78-14.59 41.22-7.66 5.44 6.92 4.3 31.64-5.08 41.62-9.38 9.98-26.39 21.23-36.37 11.86-9.98-9.39-9.15-35.84 0.23-45.82z" fill="#FA8D85" p-id="3008"></path><path d="M432.5 614.89c-4.18-13.04 4.59-38.37 13.28-39.77 8.69-1.4 29.75 11.58 33.94 24.62 4.18 13.04 5.76 30.71-7.28 34.89-13.05 4.19-35.76-6.7-39.94-19.74z" fill="#FA8D85" p-id="3009"></path><path d="M467.57 558.5a5.133 5.133 0 0 0-6.8 2.52c-0.16 0.35-0.18 0.73-0.26 1.09l-15.18 2.92 4.6-13.26c0.85-0.09 1.7-0.31 2.45-0.84a5.128 5.128 0 0 0 1.22-7.15 5.128 5.128 0 0 0-7.15-1.22 5.128 5.128 0 0 0-1.22 7.15c0.24 0.33 0.56 0.55 0.86 0.81l-4.57 13.18-10.27-11.87c0.37-0.8 0.62-1.66 0.53-2.6a5.127 5.127 0 1 0-10.21 0.95 5.127 5.127 0 0 0 5.58 4.63c0.38-0.04 0.71-0.21 1.06-0.32l10.25 11.85-13.17 2.53c-0.45-0.48-0.99-0.89-1.62-1.18a5.133 5.133 0 0 0-6.8 2.52 5.133 5.133 0 0 0 2.52 6.8c2.57 1.18 5.62 0.05 6.8-2.52 0.26-0.57 0.37-1.17 0.41-1.76l12.62-2.42-4.37 12.59c-0.94 0.05-1.87 0.26-2.69 0.85a5.128 5.128 0 0 0-1.22 7.15 5.128 5.128 0 0 0 7.15 1.22 5.128 5.128 0 0 0 1.22-7.15c-0.19-0.26-0.45-0.42-0.67-0.63l4.4-12.69 10.04 11.6c-0.25 0.69-0.38 1.42-0.31 2.2a5.127 5.127 0 1 0 10.21-0.95 5.127 5.127 0 0 0-5.58-4.63c-0.54 0.05-1.03 0.25-1.51 0.45l-9.8-11.32 15.22-2.92c0.5 0.72 1.13 1.35 1.98 1.75 2.57 1.18 5.62 0.05 6.8-2.52 1.18-2.58 0.05-5.63-2.52-6.81z" fill="#DE5349" p-id="3010"></path></svg>