<?xml version="1.0" standalone="no"?><!DOCTYPE svg PUBLIC "-//W3C//DTD SVG 1.1//EN" "http://www.w3.org/Graphics/SVG/1.1/DTD/svg11.dtd"><svg t="1648543216453" class="icon" viewBox="0 0 1024 1024" version="1.1" xmlns="http://www.w3.org/2000/svg" p-id="2871" xmlns:xlink="http://www.w3.org/1999/xlink" width="200" height="200"><defs><style type="text/css">@font-face { font-family: feedback-iconfont; src: url("//at.alicdn.com/t/font_1031158_u69w8yhxdu.woff2?t=1630033759944") format("woff2"), url("//at.alicdn.com/t/font_1031158_u69w8yhxdu.woff?t=1630033759944") format("woff"), url("//at.alicdn.com/t/font_1031158_u69w8yhxdu.ttf?t=1630033759944") format("truetype"); }
</style></defs><path d="M512 512m-448 0a448 448 0 1 0 896 0 448 448 0 1 0-896 0Z" fill="#ECD6DE" p-id="2872"></path><path d="M742.1 896.5C674.8 936.8 596.1 960 512 960c-6.2 0-12.3-0.1-18.4-0.4L508 424h158l76.1 472.5z" fill="#717171" p-id="2873"></path><path d="M193.4 578.5c-3.8-11.3-7-22.7-9.6-34.3l331.9-70.5-0.6 0.3-321.7 104.5z m2 5.7l279.9-91-264.5 127.9c-5.9-12-11-24.4-15.4-36.9z m-12.9-45.8c-2.3-11-4.1-22-5.4-33.2l319.5-33.6-314.1 66.8z m-6.1-39.2c-1-10.4-1.6-20.8-1.7-31.2h298.8l-297.1 31.2z m-1.7-37.2c0.1-11.1 0.6-22.3 1.7-33.5L494.8 462H174.7z m2.4-39.4c1.2-10.4 2.9-20.8 5-31.1l294.6 62.6-299.6-31.5z m6.2-37c2.2-9.9 4.8-19.7 7.9-29.4l276.6 89.9-284.5-60.5z m9.8-35.1c3.3-9.8 7-19.5 11.1-29.1l271.8 121-282.9-91.9z m13.5-34.6c4.5-9.9 9.4-19.6 14.9-29.2l271.4 156.7-286.3-127.5z m256.2-204.5l70.1 329.9 0.1 1.3-104.7-322.4c11.3-3.5 22.9-6.5 34.5-8.8z m5.9-1.2c13.1-2.4 26.3-4.2 39.5-5.2l21.5 292.1-61-286.9zM422.6 122l99.3 305.7L391.1 134c10.3-4.5 20.8-8.5 31.5-12z m-37 14.4l121.6 273.2-149.6-259c9.2-5.2 18.5-9.9 28-14.2z m-33.1 17.2L512.7 431 324.4 171.8c9.1-6.5 18.5-12.6 28.1-18.2z m-32.9 21.8l177.2 243.8-201.7-223.9c7.9-7 16.1-13.7 24.5-19.9z m-28.9 24l194.8 216.3-216.3-194.8c6.9-7.5 14-14.7 21.5-21.5z m-25.5 26l221.2 199.2-240.8-175c6.2-8.4 12.7-16.5 19.6-24.2zM242 254.5l248.8 180.8-266.3-153.8c5.5-9.4 11.4-18.4 17.5-27z" fill="#F9F6FF" p-id="2874"></path><path d="M592 952.9c-26 4.7-52.7 7.1-80 7.1-27.3 0-54-2.4-80-7.1V741h160v211.9z" fill="#FFEAEA" p-id="2875"></path><path d="M547.5 958.6c-11.7 0.9-23.5 1.4-35.5 1.4-9.1 0-18.1-0.3-27-0.8l68.9-135.6c-12.7 4.1-27.1 6.4-42.4 6.4-33.4 0-62.7-11-79.5-27.5V741h160v60.4l-1.1 1.1 1.1 0.9v73.2l-44.5 82z" fill="#FFD8D8" p-id="2876"></path><path d="M432 952.9c-16.3-2.9-32.3-6.8-48-11.4V808l48-20v164.9z m208-11.5c-15.7 4.7-31.7 8.5-48 11.4V788l48 20v133.4z" fill="#B9AED2" p-id="2877"></path><path d="M251.3 876.4L384 825v116.4a445.53 445.53 0 0 1-132.7-65z m388.7 65V825l132.7 51.4a445.53 445.53 0 0 1-132.7 65z" fill="#D6CEEA" p-id="2878"></path><path d="M592 952.9c-24.6 4.4-50 6.9-75.9 7.1L592 813v139.9z m-84.1 7.1c-25.9-0.2-51.2-2.7-75.9-7.1V813l75.9 147z" fill="#FFFFFF" p-id="2879"></path><path d="M698.5 919.4c-24.4 11.2-50 20.2-76.5 26.9l-59.9-339.9 78.8-13.9 57.6 326.9z" fill="#717171" p-id="2880"></path><path d="M729.7 478.1l10.1 38.6c1.4 5.4-1.8 11-7.3 12.5-1.7 0.4-3.4 0.4-5.1 0l-21.9-5.5c-5.5-1.4-8.8-6.9-7.4-12.4 0.4-1.7 1.2-3.2 2.4-4.5l27.8-30.1-0.3-0.3-39.5 10.6c-5.4 1.4-11-1.8-12.5-7.3-0.4-1.7-0.4-3.4 0-5.1l5.5-21.9c1.4-5.5 6.9-8.8 12.4-7.4 1.7 0.4 3.2 1.2 4.5 2.4l30.3 28-17.5-65.8c-2.4-9.1 3-18.4 12.1-20.8 2.8-0.7 5.7-0.8 8.5-0.1l36.3 9c9.1 2.3 14.7 11.5 12.4 20.6-0.7 2.8-2.1 5.4-4 7.5l-45.8 49.3 64.3-17.1c9.1-2.4 18.4 3 20.8 12.1 0.7 2.8 0.8 5.7 0.1 8.5l-9 36.3c-2.3 9.1-11.5 14.7-20.6 12.4-2.8-0.7-5.4-2.1-7.5-4l-49.1-45.5z" fill="#D29AA9" p-id="2881"></path><path d="M697 636c1.7 0 3 1.3 3 3v54c0 1.7-1.3 3-3 3s-3-1.3-3-3v-54c0-1.7 1.3-3 3-3z m0 70c1.7 0 3 1.3 3 3v54c0 1.7-1.3 3-3 3s-3-1.3-3-3v-54c0-1.7 1.3-3 3-3z m0 86c-4.4 0-8-3.6-8-8s3.6-8 8-8 8 3.6 8 8-3.6 8-8 8zM330 636c1.7 0 3 1.3 3 3v54c0 1.7-1.3 3-3 3s-3-1.3-3-3v-54c0-1.7 1.3-3 3-3z m0 70c1.7 0 3 1.3 3 3v54c0 1.7-1.3 3-3 3s-3-1.3-3-3v-54c0-1.7 1.3-3 3-3z m0 86c-4.4 0-8-3.6-8-8s3.6-8 8-8 8 3.6 8 8-3.6 8-8 8z" fill="#FFFFFF" p-id="2882"></path><path d="M312.2 527.4c-4.7-127 96.7-224.4 199.7-224.4 102.5 0 204.1 98.9 200 222.7 6.1-3.6 11.9-4.8 17-3 16.3 6 18.6 41.1 5 78.4-13.6 37.4-37.9 62.8-54.2 56.9-0.3-0.1-0.6-0.2-0.8-0.3-37 82.5-99.1 140.2-166.9 140.2-68.3 0-131.3-57.1-168.1-140.8-0.6 0.3-1.3 0.6-2 0.9-16.3 6-40.6-19.5-54.2-56.9-13.6-37.4-11.4-72.5 5-78.4 5.7-2 12.5-0.2 19.5 4.7z" fill="#FFEAEA" p-id="2883"></path><path d="M659.5 423.2c-35-40.4-88-66.2-147.2-66.2-105.5 0-191 81.7-191 182.5 0 19.5 3.2 38.4 9.2 56-5.8-8.3-11.8-22.3-18.1-40.9-9.4-27.5-27-48.2-29.6-100.2C278.3 368.1 312.3 205 512 205s233.8 163.1 229.4 249.4c-1.5 28.7-7.5 47.9-14.2 64 1.4 124.6-40 247.4-118.2 346.2 91.5-125.6 113.9-293.4 50.5-441.4z" fill="#717171" p-id="2884"></path><path d="M741.1 459.8C735 370.8 687.4 245 512 245c-175.4 0-223 125.8-229 214.8l-0.3-5.4C278.3 368.1 312.3 205 512 205c199.7 0 233.8 163.1 229.4 249.4-0.1 1.9-0.2 3.7-0.3 5.4z" fill="#878787" p-id="2885"></path><path d="M348.7 301.5L335 339.1c-4.4 12.1-17.7 18.3-29.8 13.8-2.5-0.9-4.9-2.3-6.9-4-9.8-8.3-11.2-23-2.9-32.9 1.7-2.1 3.8-3.8 6.1-5.2l30.1-17.5 13.6-37.6c4.4-12.1 17.7-18.3 29.8-13.8 2.5 0.9 4.9 2.3 6.9 4 9.8 8.3 11.2 23 2.9 32.9-1.7 2.1-3.8 3.8-6.1 5.2l-30 17.5z" fill="#D29AA9" p-id="2886"></path><path d="M335.3 310.6l-23-8.4c-12-4.4-18.2-17.8-13.8-29.8 0.9-2.5 2.3-4.9 4-7 8.2-9.8 22.9-11.1 32.7-2.9 2.1 1.7 3.8 3.8 5.2 6.1l11.1 19.2 23 8.4c12 4.4 18.2 17.8 13.8 29.8-0.9 2.5-2.3 4.9-4 7-8.2 9.8-22.9 11.1-32.7 2.9-2.1-1.7-3.8-3.8-5.2-6.1l-11.1-19.2z" fill="#E8B7C4" p-id="2887"></path><path d="M346.4 313.1c-8.8 3.2-18.5-1.4-21.7-10.3s1.3-18.6 10.1-21.8c8.8-3.2 18.5 1.4 21.7 10.3 3.2 8.8-1.3 18.6-10.1 21.8z" fill="#FFD8D8" p-id="2888"></path><path d="M335.9 525c-20.2 119.5 9.2 242.5 80.3 340.1-76.3-96.5-117.5-215.7-118.3-337.1h-0.7c-0.2-3.3-0.2-6.6-0.2-10 0-114.3 92.7-207 207-207 28 0 54.8 5.6 79.2 15.7 10.3 4.3 15.9 11.5 17.1 19.5s-0.9 17.5-8.4 27.9c-58.8 80.7-150.5 137.2-256 150.9z" fill="#717171" p-id="2889"></path><path d="M592.8 372.6c-2.6-2.3-5.8-4.3-9.7-6-24.3-10-51.1-15.6-79.1-15.6-104.1 0-190.3 76.9-204.8 176.9-0.6 0-1.3 0-1.9 0.1-0.2-3.3-0.2-6.6-0.2-10 0-114.3 92.7-207 207-207 28 0 54.8 5.6 79.2 15.7 10.3 4.3 15.9 11.5 17.1 19.5 1.1 7.6-0.8 16.6-7.6 26.4z" fill="#878787" p-id="2890"></path><path d="M604 584c-13.8 0-25-11.2-25-25s11.2-25 25-25 59.2 1.9 47 22.8-33.2 27.2-47 27.2z m-184 0c-13.8 0-34.7-6.4-47-27.2s33.1-22.8 47-22.8 25 11.2 25 25-11.2 25-25 25z" fill="#FFDEDE" p-id="2891"></path><path d="M604 559m-25 0a25 25 0 1 0 50 0 25 25 0 1 0-50 0Z" fill="#717171" p-id="2892"></path><path d="M420 559m-25 0a25 25 0 1 0 50 0 25 25 0 1 0-50 0Z" fill="#717171" p-id="2893"></path><path d="M488 739.5a24 16.5 0 1 0 48 0 24 16.5 0 1 0-48 0Z" fill="#FFB1B1" p-id="2894"></path></svg>