<?xml version="1.0" standalone="no"?><!DOCTYPE svg PUBLIC "-//W3C//DTD SVG 1.1//EN" "http://www.w3.org/Graphics/SVG/1.1/DTD/svg11.dtd"><svg t="1648289299336" class="icon" viewBox="0 0 1024 1024" version="1.1" xmlns="http://www.w3.org/2000/svg" p-id="20282" xmlns:xlink="http://www.w3.org/1999/xlink" width="200" height="200"><defs><style type="text/css">@font-face { font-family: feedback-iconfont; src: url("//at.alicdn.com/t/font_1031158_u69w8yhxdu.woff2?t=1630033759944") format("woff2"), url("//at.alicdn.com/t/font_1031158_u69w8yhxdu.woff?t=1630033759944") format("woff"), url("//at.alicdn.com/t/font_1031158_u69w8yhxdu.ttf?t=1630033759944") format("truetype"); }
</style></defs><path d="M748.082432 275.968L121.266432 63.104l839.552 839.552z" fill="#FFC0CB" p-id="20283"></path><path d="M1021.362432 1006.72L762.930432 279.296l22.912-22.912c4.992-4.992 4.992-13.184 0-18.304-4.992-4.992-13.184-4.992-18.304 0l-22.912 22.912L17.202432 2.56C11.570432 0.64 5.170432 2.816 1.970432 7.936s-2.432 11.776 1.792 16l90.88 90.88-4.224-0.896c-6.912-1.536-13.952 2.816-15.488 9.728-1.536 6.912 2.816 13.952 9.728 15.488l44.16 9.984 97.792 97.792-8.448-0.256c-7.04-0.256-13.056 5.376-13.312 12.544-0.256 7.168 5.376 13.056 12.544 13.312l35.968 1.152 106.752 106.752-9.856 3.072c-6.784 2.048-10.752 9.344-8.576 16.128 1.664 5.632 6.784 9.216 12.416 9.216 1.28 0 2.56-0.128 3.712-0.512l23.168-7.04 16 16c0 0.896 0.128 1.92 0.256 2.816L431.410432 574.336 68.274432 937.344c-4.992 4.992-4.992 13.184 0 18.304 2.56 2.56 5.888 3.84 9.088 3.84 3.328 0 6.656-1.28 9.088-3.84L450.866432 591.36l151.424 33.536c0.896 0.256 1.92 0.256 2.816 0.256l17.792 17.792-7.04 23.168c-2.048 6.784 1.792 14.08 8.576 16.128 1.28 0.384 2.56 0.512 3.712 0.512 5.504 0 10.624-3.584 12.416-9.216l3.072-9.856 106.752 106.752 1.152 35.968c0.256 7.04 6.016 12.544 12.928 12.544h0.384c7.168-0.256 12.8-6.144 12.544-13.312l-0.256-8.448 97.792 97.792 9.984 44.16c1.408 6.016 6.656 10.112 12.544 10.112 0.896 0 1.92-0.128 2.816-0.384 6.912-1.536 11.392-8.448 9.728-15.488l-0.896-4.224 90.88 90.88c2.56 2.432 5.76 3.84 9.088 3.84 2.432 0 4.736-0.64 6.912-2.048 5.248-3.072 7.424-9.344 5.376-15.104zM62.514432 46.208l476.16 169.216-396.8-89.984-79.36-79.232z m113.664 113.536l437.888 99.072-349.568-10.752-88.32-88.32z m114.944 115.072l377.856 11.648-280.832 85.376-97.024-97.024zM702.386432 303.36L511.026432 494.592l-102.144-102.144L702.386432 303.36zM430.514432 450.688l62.208 62.208-39.68 39.68-22.528-101.888z m41.984 119.04l38.528-38.528 60.416 60.416-98.944-21.888z m56.832-56.832L720.690432 321.536l-89.216 293.376-102.144-102.016z m122.88 122.88l85.376-280.832 11.648 377.856-97.024-97.024z m123.648 123.776l-10.752-349.568 99.072 437.888-88.32-88.32z m122.624 122.496l-89.856-396.8 169.216 476.16-79.36-79.36z" fill="#FFC0CB" p-id="20284"></path></svg>