<?xml version="1.0" encoding="UTF-8"?>
<svg width="24px" height="24px" viewBox="0 0 24 24" version="1.1" xmlns="http://www.w3.org/2000/svg" xmlns:xlink="http://www.w3.org/1999/xlink">
    <!-- Generator: Sketch 56 (81588) - https://sketch.com -->
    <title>Icon/WebPDF/Favorite</title>
    <desc>Created with Sketch.</desc>
    <g id="V1.7-V1.8" stroke="none" stroke-width="1" fill="none" fill-rule="evenodd">
        <g id="Index备份-7" transform="translate(-1312.000000, -478.000000)" fill="#FFFFFF">
            <g id="编组" transform="translate(1302.000000, 468.000000)">
                <g id="编组-23" transform="translate(10.000000, 10.000000)">
                    <g id="Icon/Function/Favorite">
                        <path d="M11.7673294,17.6223222 L6.4310983,20.4277449 C6.18667601,20.5562453 5.88436243,20.462272 5.75586203,20.2178497 C5.70469249,20.1205195 5.68703515,20.0090355 5.70562358,19.9006566 L6.72475304,13.9586759 C6.75257201,13.7964789 6.69879776,13.6309788 6.58095472,13.5161102 L2.26385305,9.30797614 C2.06611126,9.11522554 2.0620651,8.79866891 2.25481571,8.60092712 C2.33157001,8.5221853 2.43214122,8.47094171 2.54095973,8.45512946 L8.50704751,7.58820616 C8.66990259,7.56454193 8.81068539,7.46225724 8.88351639,7.3146855 L11.551632,1.90849288 C11.6738431,1.66086605 11.973656,1.55919655 12.2212829,1.68140769 C12.3198892,1.73007281 12.3997029,1.80988657 12.448368,1.90849288 L15.1164836,7.3146855 C15.1893146,7.46225724 15.3300974,7.56454193 15.4929525,7.58820616 L21.4590403,8.45512946 C21.7323127,8.49483826 21.9216534,8.74855969 21.8819446,9.02183212 C21.8661324,9.13065064 21.8148888,9.23122184 21.736147,9.30797614 L17.4190453,13.5161102 C17.3012022,13.6309788 17.247428,13.7964789 17.275247,13.9586759 L18.2943764,19.9006566 C18.3410569,20.1728249 18.158263,20.4313028 17.8860948,20.4779833 C17.777716,20.4965718 17.6662319,20.4789144 17.5689017,20.4277449 L12.2326706,17.6223222 C12.0870086,17.5457431 11.9129914,17.5457431 11.7673294,17.6223222 Z" id="星形"></path>
                    </g>
                </g>
            </g>
        </g>
    </g>
</svg>