<?xml version="1.0" standalone="no"?><!DOCTYPE svg PUBLIC "-//W3C//DTD SVG 1.1//EN" "http://www.w3.org/Graphics/SVG/1.1/DTD/svg11.dtd"><svg t="1648584833293" class="icon" viewBox="0 0 1024 1024" version="1.1" xmlns="http://www.w3.org/2000/svg" p-id="25389" xmlns:xlink="http://www.w3.org/1999/xlink" width="32" height="32"><defs><style type="text/css"></style></defs><path d="M884.4 810.5l-745.8 0.3 0.1-595.9 745.8-0.2 0.3 595.8h-0.4m0-670H138.7c-41.2-0.1-74.6 33.2-74.7 74.2v596.1c0.1 41.1 33.6 74.3 74.7 74.2h745.7c41.1 0 74.5-33.1 74.7-74.2V214.7c-0.1-41.1-33.5-74.3-74.7-74.2" p-id="25390" fill="#8a8a8a"></path><path d="M250.5 587.2h149.2c20.6 0 37.3-16.7 37.3-37.2 0-20.6-16.7-37.2-37.3-37.2H250.5c-20.6 0-37.3 16.7-37.3 37.2 0 20.5 16.7 37.2 37.3 37.2m298.4 74.4H250.5c-20.6 0-37.3 16.7-37.3 37.2s16.7 37.2 37.3 37.2h298.4c20.6 0 37.3-16.7 37.3-37.2s-16.7-37.2-37.3-37.2m-37.3-372.2v297.8H810V289.4H511.6z m223.7 223.3H586.2V363.8h149.2v148.9z m0 0" p-id="25391" fill="#8a8a8a"></path></svg>