<?xml version="1.0" standalone="no"?><!DOCTYPE svg PUBLIC "-//W3C//DTD SVG 1.1//EN" "http://www.w3.org/Graphics/SVG/1.1/DTD/svg11.dtd"><svg t="1648382438002" class="icon" viewBox="0 0 1024 1024" version="1.1" xmlns="http://www.w3.org/2000/svg" p-id="16302" xmlns:xlink="http://www.w3.org/1999/xlink" width="200" height="200"><defs><style type="text/css">@font-face { font-family: feedback-iconfont; src: url("//at.alicdn.com/t/font_1031158_u69w8yhxdu.woff2?t=1630033759944") format("woff2"), url("//at.alicdn.com/t/font_1031158_u69w8yhxdu.woff?t=1630033759944") format("woff"), url("//at.alicdn.com/t/font_1031158_u69w8yhxdu.ttf?t=1630033759944") format("truetype"); }
</style></defs><path d="M777.9 709.9c-9.7-13.4-20.7-25.1-32.6-35l-0.2-0.2c-24.5-21.4-54.6-40.4-86.9-54.8-33.3-14.8-61-21.1-78.9-21.1-8.6 0-14.9 1.4-18.5 4.1-11.2 8.1-19.5 44.4-13.9 97.9 3.7 35.2 12.5 69.6 25.3 99.6l0.1 0.3c5.7 14.4 13.5 28.5 23.2 41.9 19.4 26.7 44 47.1 69.3 57.3 24.1 9.8 45.8 9.1 61-1.9 9.5-6.9 15.9-17.2 19-30.7l1.9-8.5 8.7 0.8c13.7 1.2 25.5-1.6 35-8.6 15.2-11.1 22.6-31.4 20.7-57.4-2.1-27.3-13.8-57-33.2-83.7z" fill="#F4A460" p-id="16303"></path><path d="M598.1 391.8c18.6-32.3 32.5-67.2 40.2-100.8 4.3-16.6 6.4-34.2 6.4-52.4 0-36.7-9-71.4-25.3-97.7-17.5-28.2-41.5-43.7-67.5-43.7-14 0-27.6 4.6-39.9 13.4-12.3-8.8-26-13.4-39.9-13.4-26 0-49.9 15.5-67.5 43.7-16.3 26.3-25.4 61-25.4 97.7 0 18.1 2.2 35.8 6.4 52.4 7.7 33.6 21.6 68.5 40.2 100.8 29.3 50.8 61.5 81.1 86.1 81.1 24.8 0 56.9-30.3 86.2-81.1zM512 452.9c-13.8 0-41.9-24.4-68.8-71.1-17.7-30.7-30.8-63.7-38.1-95.4l-0.1-0.3c-3.9-15-5.8-31-5.8-47.5 0-33 7.9-63.9 22.3-87.1 13.8-22.1 31.7-34.3 50.5-34.3 11.7 0 23 4.6 33.4 13.7l6.6 5.7 6.6-5.7c10.4-9.1 21.6-13.7 33.4-13.7 18.8 0 36.7 12.2 50.5 34.3 14.4 23.2 22.3 54.1 22.3 87.1 0 16.5-2 32.5-5.8 47.5l-0.1 0.3c-7.2 31.7-20.4 64.7-38.1 95.4-26.9 46.7-55 71.1-68.8 71.1zM269.7 581.6c25.7 0 52.5-2.8 78.8-8.4 57.3-12.1 96.1-33.4 103.7-56.8 7.6-23.4-11.3-63.4-50.5-106.9-25-27.7-53.8-51.7-83.4-69.4-14.5-9.2-30.6-16.7-47.8-22.3-34.9-11.3-70.7-13.5-100.7-6.1-32.2 8-54.4 26-62.4 50.7-4.3 13.3-4.2 27.7 0.4 42.1-12.2 9-20.8 20.6-25.1 33.8-8 24.7-0.7 52.3 20.7 77.7 19.9 23.7 50.2 42.9 85 54.3 17.3 5.6 34.7 9 51.8 10.1 9.6 0.8 19.5 1.2 29.5 1.2z m-151.1-78.5c-16.8-19.9-22.8-40.7-17-58.6 3.6-11.2 11.5-20.4 23.3-27.5l7.5-4.5-3.4-8c-5.4-12.7-6.3-24.8-2.7-36 5.8-17.9 22.9-31.2 48.2-37.4 26.5-6.5 58.3-4.5 89.7 5.7 15.7 5.1 30.3 11.9 43.4 20.2l0.2 0.1c28 16.7 55.3 39.4 79 65.7 36.1 40 50.6 74.2 46.3 87.4-4.3 13.1-36.2 32.3-88.8 43.5-34.6 7.3-70.1 9.7-102.5 6.7h-0.3c-15.5-1-31.3-4-47-9.1-31.3-10.3-58.3-27.4-75.9-48.2zM941.4 438.3c-4.3-13.3-12.9-24.8-25.1-33.8 4.6-14.4 4.7-28.9 0.4-42.1-8-24.7-30.2-42.7-62.4-50.7-30-7.4-65.8-5.3-100.7 6.1-17.3 5.6-33.3 13.1-47.8 22.3-29.6 17.7-58.5 41.7-83.4 69.4-39.2 43.5-58.1 83.5-50.5 106.9 7.6 23.4 46.4 44.7 103.7 56.8 26.3 5.6 53 8.4 78.8 8.4 10 0 19.9-0.4 29.5-1.3 17.1-1.1 34.5-4.4 51.8-10.1 34.9-11.3 65.1-30.6 85-54.3 21.4-25.3 28.7-52.9 20.7-77.6z m-36 64.8c-17.6 20.9-44.5 38-75.9 48.2-15.7 5.1-31.5 8.2-47 9.1h-0.3c-32.4 2.9-67.9 0.6-102.5-6.7-52.7-11.2-84.6-30.3-88.8-43.5-4.3-13.1 10.3-47.4 46.3-87.4 23.7-26.3 51-49 79-65.7l0.2-0.1c13.1-8.3 27.7-15.1 43.4-20.2 19.3-6.3 38.8-9.4 57.1-9.4 11.5 0 22.5 1.2 32.7 3.8 25.3 6.2 42.4 19.5 48.2 37.4 3.6 11.2 2.7 23.3-2.7 36l-3.4 8 7.5 4.5c11.8 7.1 19.7 16.3 23.3 27.5 5.7 17.7-0.4 38.6-17.1 58.5zM475 586.7c-19.9-14.5-63.8-8.9-117.3 15-34.1 15.2-65.8 35.2-91.8 57.9-13.2 10.9-25.3 23.9-36 38.6-21.6 29.7-34.7 63-36.9 93.9-2.4 33.1 7.9 59.8 28.9 75 11.3 8.2 25.1 12.5 40.2 12.6 4.8 14.4 13.2 26.1 24.4 34.3 11.6 8.4 25.5 12.7 40.8 12.7 12.4 0 25.7-2.8 39.5-8.4 28.7-11.7 56.3-34.4 77.9-64.1 10.7-14.7 19.3-30.2 25.6-46.1 13.5-31.7 22.8-68.1 26.7-105.2 6.2-58.3-2-101.7-22-116.2z m2.2 114.1c-3.7 35.2-12.5 69.6-25.3 99.6l-0.1 0.3c-5.7 14.4-13.5 28.5-23.2 41.9-19.4 26.7-44 47.1-69.3 57.3-24.1 9.8-45.8 9.1-61-1.9-9.5-6.9-15.9-17.2-19-30.7l-1.9-8.5-8.7 0.8c-13.7 1.2-25.5-1.6-35-8.6-15.2-11.1-22.6-31.4-20.7-57.4 2-27.2 13.7-56.9 33.1-83.6 9.7-13.4 20.7-25.1 32.6-35l0.2-0.2c24.5-21.4 54.6-40.4 86.9-54.8 49.2-21.9 86.2-25.2 97.4-17.1s19.6 44.3 14 97.9zM794.1 698.1c-10.7-14.7-22.8-27.7-36-38.6-26-22.7-57.7-42.7-91.8-57.9-53.5-23.9-97.4-29.5-117.3-15-19.9 14.5-28.2 57.9-22 116.2 3.9 37.1 13.2 73.5 26.7 105.2 6.3 15.9 14.9 31.5 25.6 46.1 21.6 29.7 49.2 52.5 77.9 64.1 13.8 5.6 27.1 8.4 39.5 8.4 15.3 0 29.2-4.2 40.8-12.7 11.3-8.2 19.6-20 24.4-34.3 15.1-0.1 28.9-4.4 40.2-12.6 21-15.3 31.3-41.9 28.9-75-2.3-30.8-15.4-64.2-36.9-93.9z m-3.8 152.8c-9.5 6.9-21.3 9.8-35 8.6l-8.7-0.8-1.9 8.5c-3.1 13.4-9.5 23.8-19 30.7-15.2 11.1-36.9 11.7-61 1.9-25.3-10.3-49.9-30.6-69.3-57.3-9.7-13.4-17.5-27.4-23.2-41.9l-0.1-0.3c-12.8-29.9-21.5-64.4-25.3-99.6-5.7-53.5 2.7-89.8 13.9-97.9 3.6-2.6 9.9-4.1 18.5-4.1 17.9 0 45.6 6.3 78.9 21.1 32.3 14.4 62.4 33.4 86.9 54.8l0.2 0.2c12 9.9 22.9 21.6 32.6 35 19.4 26.7 31.2 56.4 33.1 83.6 2 26.1-5.4 46.4-20.6 57.5z" fill="#F4A460" p-id="16304"></path></svg>