<?xml version="1.0" standalone="no"?><!DOCTYPE svg PUBLIC "-//W3C//DTD SVG 1.1//EN"
        "http://www.w3.org/Graphics/SVG/1.1/DTD/svg11.dtd">
<svg t="1647248236292" class="icon" viewBox="0 0 1024 1024" version="1.1" xmlns="http://www.w3.org/2000/svg" p-id="5866"
     width="64" height="64">
    <defs>
        <style type="text/css"></style>
    </defs>
    <path d="M57.727096 4.248201c11.271894 0 22.090646 3.823381 30.020621 10.648824a33.985609 33.985609 0 0 1 12.46139 25.772421v946.725787c0 20.108152-19.031941 36.421245-42.482011 36.421245S15.245084 1007.503385 15.245084 987.395233V40.641124C15.245084 20.532972 34.277026 4.248201 57.727096 4.248201z m910.87097 9.431007a73.097381 73.097381 0 0 1 35.854817 63.383161v873.883298a73.097381 73.097381 0 0 1-35.854817 63.383161 68.990787 68.990787 0 0 1-71.284816-0.934604L189.194761 576.452575v0.028321a73.267309 73.267309 0 0 1-34.382108-62.448557c0-25.602492 13.027817-49.307455 34.382108-62.476878L897.31325 14.613812a68.990787 68.990787 0 0 1 71.284816-0.934604z"
          p-id="5867"></path>
</svg>
