<?xml version="1.0" standalone="no"?><!DOCTYPE svg PUBLIC "-//W3C//DTD SVG 1.1//EN"
        "http://www.w3.org/Graphics/SVG/1.1/DTD/svg11.dtd">
<svg t="1647248267587" class="icon" viewBox="0 0 1024 1024" version="1.1" xmlns="http://www.w3.org/2000/svg" p-id="8700"
     width="64" height="64">
    <defs>
        <style type="text/css"></style>
    </defs>
    <path d="M967.11117 0.000284c-11.320879 0-22.186648 3.839997-30.151086 10.723547a34.133305 34.133305 0 0 0-12.515545 25.855979v950.840096c0 20.195539 19.114651 36.579525 42.666631 36.579525s42.666631-16.383986 42.666631-36.579525V36.57981C1009.777801 16.384271 990.663151 0.000284 967.11117 0.000284zM50.205268 9.500721A73.41505 73.41505 0 0 0 14.223076 73.159335v877.681046a73.41505 73.41505 0 0 0 35.982192 63.658614 69.290609 69.290609 0 0 0 71.594607-0.938666l711.195852-438.840523v0.028444A73.585716 73.585716 0 0 0 867.555698 512.028302c0-25.713756-13.112878-49.521737-34.559971-62.748392L121.799875 10.439387A69.290609 69.290609 0 0 0 50.205268 9.500721z"
          p-id="8701" fill="#2c2c2c"></path>
</svg>
