<?xml version="1.0" standalone="no"?><!DOCTYPE svg PUBLIC "-//W3C//DTD SVG 1.1//EN"
        "http://www.w3.org/Graphics/SVG/1.1/DTD/svg11.dtd">
<svg t="1647248214440" class="icon" viewBox="0 0 1024 1024" version="1.1" xmlns="http://www.w3.org/2000/svg" p-id="4246"
     width="64" height="64">
    <defs>
        <style type="text/css"></style>
    </defs>
    <path d="M596.8 241.6L560 280c-25.6 25.6-68.8 25.6-94.4 0l-38.4-38.4c-73.6-73.6-193.6-80-268.8-11.2-80 73.6-83.2 200-6.4 276.8l315.2 315.2c24 24 65.6 24 89.6 0l315.2-315.2c76.8-76.8 73.6-203.2-6.4-276.8-75.2-67.2-193.6-62.4-268.8 11.2z m-44.8-44.8c97.6-97.6 254.4-105.6 356.8-14.4 108.8 99.2 112 267.2 9.6 369.6L601.6 867.2c-49.6 49.6-131.2 49.6-180.8 0L107.2 552C4.8 449.6 8 281.6 116.8 182.4c100.8-92.8 259.2-83.2 356.8 14.4l38.4 38.4c1.6 1.6 3.2 1.6 4.8 0l35.2-38.4z"
          fill="#2c2c2c" p-id="4247"></path>
</svg>
