<?xml version="1.0" encoding="iso-8859-1"?>
<!-- Generator: Adobe Illustrator 23.0.2, SVG Export Plug-In . SVG Version: 6.00 Build 0)  -->
<svg version="1.1" id="&#x56FE;&#x5C42;_1" xmlns="http://www.w3.org/2000/svg" xmlns:xlink="http://www.w3.org/1999/xlink" x="0px"
	 y="0px" viewBox="0 0 1417.323 1417.323" style="enable-background:new 0 0 1417.323 1417.323;" xml:space="preserve">
<g>
	<g>
		<path style="fill:#FFFFFF;" d="M144.839,711.496c0-185.109,0.097-370.218-0.274-555.326c-0.019-9.703,1.906-11.611,11.607-11.603
			c370.216,0.318,740.432,0.318,1110.648,0c9.701-0.008,11.611,1.902,11.603,11.603c-0.318,370.217-0.318,740.435,0,1110.653
			c0.008,9.701-1.902,11.611-11.603,11.603c-370.216-0.318-740.432-0.318-1110.648,0c-9.701,0.008-11.627-1.9-11.607-11.603
			C144.936,1081.714,144.839,896.605,144.839,711.496z"/>
		<path style="fill:#342C25;" d="M566.266,826.369c-24.391,1.062-55.858-5.028-86.059-18.794
			c-41.752-19.031-58.92-54.194-66.436-96.654c-13.385-75.613,24.44-137.204,101.608-163.59c25.018-8.554,49.669-14.154,77.31-6.87
			c27.862,7.341,40.163,35.184,37.79,59.504c-2.959,30.329-20.551,52.809-47.293,67.35c-20.224,10.997-44.311,6.594-56.509-9.339
			c-11.654-15.223-6.458-37.031,10.561-43.939c6.996-2.84,14.161-3.554,19.3,3.145c5.16,6.726,3.333,13.16-2.719,18.686
			c-1.914,1.747-5.551,3.448-2.849,6.559c1.637,1.885,4.962,3.564,7.339,3.339c14.566-1.382,27.43-6.265,35.807-19.375
			c8.673-13.575,7.019-27.004-1.593-39.473c-8.109-11.74-20.922-12.104-33.265-9.836c-37.172,6.831-70.511,20.944-93.365,53.058
			c-20.501,28.809-19.984,79.803,1.299,108.136c13.415,17.858,32.759,25.295,54.103,26.63
			c70.421,4.402,130.236-20.541,181.523-67.687c64.351-59.154,113.502-129.652,151.161-207.998
			c19.668-40.917,31.221-85.093,44.097-128.594c2.521-8.517,6.074-16.815,7.703-25.486c1.994-10.615,9.323-13.857,17.36-11.136
			c44.062,14.916,87.408,31.683,127.274,56.177c14.342,8.812,14.795,20.767,9.206,35.466
			c-40.282,105.938-103.214,196.419-186.559,272.696c-59.262,54.236-124.99,98.385-202.278,123.341
			C639.586,821.756,607.72,827.323,566.266,826.369z"/>
	</g>
</g>
</svg>
